<svg
  aria-hidden="true"
  width="17"
  height="15"
  color="red"
  viewBox="0 0 19 18"
  fill="none"
  xmlns="http://www.w3.org/2000/svg"
>
  <path
    fill-rule="evenodd"
    clip-rule="evenodd"
    d="M6.81753 1.60122C7.39283 0.530035 8.46953 0 9.50409 0C10.5507 0 11.6022 0.539558 12.1805 1.59767L18.6047 13.3334C18.882 13.8283 19 14.3568 19 14.8622C19 16.5296 17.7949 18 15.9149 18H3.08514C1.20508 18 0 16.5296 0 14.8622C0 14.3454 0.131445 13.8172 0.405555 13.3379L6.81753 1.60122ZM9.50409 2C9.13355 2 8.77256 2.18675 8.57866 2.54907L8.57458 2.5567L2.14992 14.3166L2.144 14.3268C2.04638 14.4959 2 14.6817 2 14.8622C2 15.5497 2.43032 16 3.08514 16H15.9149C16.5697 16 17 15.5497 17 14.8622C17 14.6681 16.9554 14.4805 16.8588 14.309L16.8529 14.2986L10.4259 2.55741C10.2191 2.1792 9.86395 2 9.50409 2Z"
    fill="currentColor"
  ></path>
  <path
    d="M9.5 11.2297C9.01639 11.2297 8.7459 10.9419 8.72951 10.4186L8.60656 6.4157C8.59016 5.88372 8.95902 5.5 9.4918 5.5C10.0164 5.5 10.4016 5.89244 10.3852 6.42442L10.2623 10.4099C10.2377 10.9419 9.96721 11.2297 9.5 11.2297ZM9.5 14.5C8.95082 14.5 8.5 14.0901 8.5 13.5058C8.5 12.9215 8.95082 12.5116 9.5 12.5116C10.0492 12.5116 10.5 12.9128 10.5 13.5058C10.5 14.0988 10.041 14.5 9.5 14.5Z"
    fill="currentColor"
  ></path>
</svg>
